<svg contentScriptType="application/ecmascript" contentStyleType="text/css" height="423px" preserveAspectRatio="none" style="width:608px;height:423px;" version="1.1" viewBox="0 0 608 423" width="608px" xmlns="http://www.w3.org/2000/svg" xmlns:xlink="http://www.w3.org/1999/xlink" zoomAndPan="magnify"><defs><filter height="300%" id="fuy3g9ttf3io1" width="300%" x="-1" y="-1"><feGaussianBlur result="blurOut" stdDeviation="2.0"/><feColorMatrix in="blurOut" result="blurOut2" type="matrix" values="0 0 0 0 0 0 0 0 0 0 0 0 0 0 0 0 0 0 .4 0"/><feOffset dx="4.0" dy="4.0" in="blurOut2" result="blurOut3"/><feBlend in="SourceGraphic" in2="blurOut3" mode="normal"/></filter></defs><g><rect fill="#FFFFFF" filter="url(#fuy3g9ttf3io1)" height="209.7969" style="stroke: #A80036; stroke-width: 1.0;" width="10" x="218.5" y="117.4297"/><rect fill="#FFFFFF" filter="url(#fuy3g9ttf3io1)" height="138.5313" style="stroke: #A80036; stroke-width: 1.0;" width="10" x="522.5" y="188.6953"/><line style="stroke: #A80036; stroke-width: 1.0; stroke-dasharray: 5.0,5.0;" x1="26" x2="26" y1="86.2969" y2="336.2266"/><line style="stroke: #A80036; stroke-width: 1.0; stroke-dasharray: 5.0,5.0;" x1="223" x2="223" y1="86.2969" y2="336.2266"/><line style="stroke: #A80036; stroke-width: 1.0; stroke-dasharray: 5.0,5.0;" x1="527" x2="527" y1="86.2969" y2="336.2266"/><text fill="#000000" font-family="sans-serif" font-size="14" lengthAdjust="spacingAndGlyphs" textLength="31" x="8" y="82.9951">user</text><ellipse cx="26.5" cy="13" fill="#FEFECE" filter="url(#fuy3g9ttf3io1)" rx="8" ry="8" style="stroke: #A80036; stroke-width: 2.0;"/><path d="M26.5,21 L26.5,48 M13.5,29 L39.5,29 M26.5,48 L13.5,63 M26.5,48 L39.5,63 " fill="none" filter="url(#fuy3g9ttf3io1)" style="stroke: #A80036; stroke-width: 2.0;"/><text fill="#000000" font-family="sans-serif" font-size="14" lengthAdjust="spacingAndGlyphs" textLength="31" x="8" y="348.2217">user</text><ellipse cx="26.5" cy="361.5234" fill="#FEFECE" filter="url(#fuy3g9ttf3io1)" rx="8" ry="8" style="stroke: #A80036; stroke-width: 2.0;"/><path d="M26.5,369.5234 L26.5,396.5234 M13.5,377.5234 L39.5,377.5234 M26.5,396.5234 L13.5,411.5234 M26.5,396.5234 L39.5,411.5234 " fill="none" filter="url(#fuy3g9ttf3io1)" style="stroke: #A80036; stroke-width: 2.0;"/><rect fill="#FEFECE" filter="url(#fuy3g9ttf3io1)" height="30.2969" style="stroke: #A80036; stroke-width: 1.5;" width="51" x="196" y="51"/><text fill="#000000" font-family="sans-serif" font-size="14" lengthAdjust="spacingAndGlyphs" textLength="37" x="203" y="70.9951">client</text><rect fill="#FEFECE" filter="url(#fuy3g9ttf3io1)" height="30.2969" style="stroke: #A80036; stroke-width: 1.5;" width="51" x="196" y="335.2266"/><text fill="#000000" font-family="sans-serif" font-size="14" lengthAdjust="spacingAndGlyphs" textLength="37" x="203" y="355.2217">client</text><rect fill="#FEFECE" filter="url(#fuy3g9ttf3io1)" height="30.2969" style="stroke: #A80036; stroke-width: 1.5;" width="57" x="497" y="51"/><text fill="#000000" font-family="sans-serif" font-size="14" lengthAdjust="spacingAndGlyphs" textLength="43" x="504" y="70.9951">server</text><rect fill="#FEFECE" filter="url(#fuy3g9ttf3io1)" height="30.2969" style="stroke: #A80036; stroke-width: 1.5;" width="57" x="497" y="335.2266"/><text fill="#000000" font-family="sans-serif" font-size="14" lengthAdjust="spacingAndGlyphs" textLength="43" x="504" y="355.2217">server</text><rect fill="#FFFFFF" filter="url(#fuy3g9ttf3io1)" height="209.7969" style="stroke: #A80036; stroke-width: 1.0;" width="10" x="218.5" y="117.4297"/><rect fill="#FFFFFF" filter="url(#fuy3g9ttf3io1)" height="138.5313" style="stroke: #A80036; stroke-width: 1.0;" width="10" x="522.5" y="188.6953"/><polygon fill="#A80036" points="206.5,113.4297,216.5,117.4297,206.5,121.4297,210.5,117.4297" style="stroke: #A80036; stroke-width: 1.0;"/><line style="stroke: #A80036; stroke-width: 1.0;" x1="26.5" x2="212.5" y1="117.4297" y2="117.4297"/><text fill="#000000" font-family="sans-serif" font-size="13" lengthAdjust="spacingAndGlyphs" textLength="173" x="33.5" y="112.3638">message(endereço + nick)</text><line style="stroke: #A80036; stroke-width: 1.0;" x1="228.5" x2="270.5" y1="146.5625" y2="146.5625"/><line style="stroke: #A80036; stroke-width: 1.0;" x1="270.5" x2="270.5" y1="146.5625" y2="159.5625"/><line style="stroke: #A80036; stroke-width: 1.0;" x1="229.5" x2="270.5" y1="159.5625" y2="159.5625"/><polygon fill="#A80036" points="239.5,155.5625,229.5,159.5625,239.5,163.5625,235.5,159.5625" style="stroke: #A80036; stroke-width: 1.0;"/><text fill="#000000" font-family="sans-serif" font-size="13" lengthAdjust="spacingAndGlyphs" textLength="57" x="235.5" y="141.4966">encode()</text><polygon fill="#A80036" points="510.5,184.6953,520.5,188.6953,510.5,192.6953,514.5,188.6953" style="stroke: #A80036; stroke-width: 1.0;"/><line style="stroke: #A80036; stroke-width: 1.0;" x1="228.5" x2="516.5" y1="188.6953" y2="188.6953"/><text fill="#000000" font-family="sans-serif" font-size="13" lengthAdjust="spacingAndGlyphs" textLength="275" x="235.5" y="183.6294">message(tetrisstart + nick + clientversion)</text><line style="stroke: #A80036; stroke-width: 1.0;" x1="532.5" x2="574.5" y1="217.8281" y2="217.8281"/><line style="stroke: #A80036; stroke-width: 1.0;" x1="574.5" x2="574.5" y1="217.8281" y2="230.8281"/><line style="stroke: #A80036; stroke-width: 1.0;" x1="533.5" x2="574.5" y1="230.8281" y2="230.8281"/><polygon fill="#A80036" points="543.5,226.8281,533.5,230.8281,543.5,234.8281,539.5,230.8281" style="stroke: #A80036; stroke-width: 1.0;"/><text fill="#000000" font-family="sans-serif" font-size="13" lengthAdjust="spacingAndGlyphs" textLength="57" x="539.5" y="212.7622">decode()</text><polygon fill="#A80036" points="239.5,255.9609,229.5,259.9609,239.5,263.9609,235.5,259.9609" style="stroke: #A80036; stroke-width: 1.0;"/><line style="stroke: #A80036; stroke-width: 1.0; stroke-dasharray: 2.0,2.0;" x1="233.5" x2="521.5" y1="259.9609" y2="259.9609"/><text fill="#000000" font-family="sans-serif" font-size="13" lengthAdjust="spacingAndGlyphs" textLength="137" x="245.5" y="254.895">response(playernum)</text><polygon fill="#A80036" points="239.5,285.0938,229.5,289.0938,239.5,293.0938,235.5,289.0938" style="stroke: #A80036; stroke-width: 1.0;"/><line style="stroke: #A80036; stroke-width: 1.0; stroke-dasharray: 2.0,2.0;" x1="233.5" x2="521.5" y1="289.0938" y2="289.0938"/><text fill="#000000" font-family="sans-serif" font-size="13" lengthAdjust="spacingAndGlyphs" textLength="107" x="245.5" y="284.0278">response(winlist)</text><polygon fill="#A80036" points="510.5,314.2266,520.5,318.2266,510.5,322.2266,514.5,318.2266" style="stroke: #A80036; stroke-width: 1.0;"/><line style="stroke: #A80036; stroke-width: 1.0;" x1="228.5" x2="516.5" y1="318.2266" y2="318.2266"/><text fill="#000000" font-family="sans-serif" font-size="13" lengthAdjust="spacingAndGlyphs" textLength="142" x="235.5" y="313.1606">message(playerteam)</text><!--
@startuml
actor user
participant client
participant server

user -> client : message(endereço + nick)
    activate client
client -> client : encode()
client -> server : message(tetrisstart + nick + clientversion)
    activate server
server -> server : decode()
server - -> client: response(playernum)
server - -> client: response(winlist)
client -> server :  message(playerteam)
@enduml

PlantUML version 1.2019.05beta2(Unknown compile time)
(GPL source distribution)
Java Runtime: Java(TM) SE Runtime Environment
JVM: Java HotSpot(TM) 64-Bit Server VM
Java Version: 1.7.0_25-b15
Operating System: Linux
Default Encoding: UTF-8
Language: en
Country: US
--></g></svg>